<?xml version="1.0" encoding="utf-8"?>
<!-- Generator: Adobe Illustrator 24.1.3, SVG Export Plug-In . SVG Version: 6.00 Build 0)  -->
<svg version="1.1" id="Layer_1" xmlns="http://www.w3.org/2000/svg" xmlns:xlink="http://www.w3.org/1999/xlink" x="0px" y="0px"
	 viewBox="0 0 104.8 137" style="enable-background:new 0 0 104.8 137;" xml:space="preserve">
<style type="text/css">
	.st0{fill:url(#SVGID_1_);}
	.st1{opacity:0.2;}
	.st2{fill:url(#SVGID_2_);}
	.st3{fill:url(#SVGID_3_);}
	.st4{fill:url(#SVGID_4_);}
	.st5{opacity:0.25;}
</style>
<g>
	<linearGradient id="SVGID_1_" gradientUnits="userSpaceOnUse" x1="87.785" y1="96.9001" x2="55.7461" y2="28.4863">
		<stop  offset="0" style="stop-color:#7AF5F2"/>
		<stop  offset="0.5" style="stop-color:#27C9BC"/>
		<stop  offset="1" style="stop-color:#007497"/>
	</linearGradient>
	<path class="st0" d="M100.8,84.4c0,17.6-9.4,33-23.4,41.5c8.7-7.4,7.7-26.7-1.7-47.8c-0.6-3-3-7.3-6.2-12c0,0-1.1-1.7-1.9-2.8
		c-0.5-0.7-1-1.4-1.5-2.1c-0.4-0.5-0.7-1-1.1-1.5c-0.1-0.2-0.2-0.3-0.4-0.5c-4.5-6-8.5-11.1-12.3-15.3c0.1-0.1,0.2-0.3,0.4-0.4
		c4.9-5.2,7.8-12,7.8-19.4c0-7.7-3.2-14.8-8.5-20.1c0.1-0.1,0,0,0,0s45.1,50.7,47.4,69.1C100.3,76.8,100.8,80.6,100.8,84.4z"/>
	<path class="st1" d="M62.6,26.6c0,7.4-3,14.2-7.8,19.4c-0.1,0.1-0.2,0.2-0.3,0.4c-0.7-0.9-1.5-1.7-2.2-2.5c0.1-0.1,0.2-0.3,0.4-0.4
		c4.9-5.2,7.8-12,7.8-19.4c0-6.4-2.2-12.3-6-17.2C59.5,12.1,62.6,19,62.6,26.6z"/>
	<linearGradient id="SVGID_2_" gradientUnits="userSpaceOnUse" x1="68.2327" y1="14.123" x2="37.3783" y2="88.3664">
		<stop  offset="0" style="stop-color:#FAD94E"/>
		<stop  offset="0.5" style="stop-color:#FE7F2E"/>
		<stop  offset="1" style="stop-color:#F13E5E"/>
	</linearGradient>
	<path class="st2" d="M67.6,103.7c-0.2,0.2-0.4,0.3-0.6,0.5c-0.1,0.1-0.3,0.2-0.4,0.3c-0.3,0.3-0.7,0.5-1,0.8
		c-0.3,0.2-0.5,0.3-0.8,0.5c-0.5,0.3-0.9,0.6-1.4,0.8c-12.5,6.5-29.1,0-39.7-14.6c-1.4-2-2.8-4.1-3.9-6.4
		c-3.8-7.3-5.6-14.9-5.6-21.9c0-0.5,0-0.9,0-1.3c0-0.3,0-0.7,0.1-1c0-0.3,0-0.6,0.1-0.9c0.2-2.3,0.6-4.5,1.2-6.6
		c0.1-0.3,0.2-0.7,0.3-1c0.1-0.2,0.1-0.4,0.2-0.5c0.1-0.2,0.1-0.4,0.2-0.6c0-0.1,0.1-0.3,0.1-0.4c0.2-0.6,0.5-1.2,0.7-1.8
		c0.1-0.3,0.2-0.5,0.4-0.8c0.1-0.3,0.3-0.6,0.4-0.9c0,0,0-0.1,0.1-0.1c1.1-1.6,2.3-3.3,3.5-5c3.5-4.9,7.3-9.9,10.9-14.6
		C41.9,15.7,50.7,5.6,52,4.1c0,0,0,0,0.1,0.1C53,5,53.8,5.9,54.5,6.9c0.1,0.1,0.1,0.1,0.2,0.2c3.7,4.9,5.9,10.8,5.9,17.1
		c0,7.4-2.9,14.2-7.8,19.4c-0.1,0.1-0.2,0.3-0.4,0.4l-1,1.1c-3.7,4.2-21.6,25.3-22.7,33.6c-0.4,1.8-0.7,3.7-0.7,5.6
		c0,0.2,0,0.3,0,0.5v0c0,0.3,0,0.6,0,1c0,0,0,0,0,0c0.1,1.1,0.2,2.2,0.4,3.3c0,0,0,0.1,0,0.1c0,0.1,0,0.1,0,0.2c0,0,0,0,0,0s0,0,0,0
		c1.5,7.1,6.2,13,12.4,16.3c0.2,0.1,0.5,0.3,0.7,0.4c0,0,0.1,0,0.1,0c1.7,0.8,3.6,1.5,5.5,1.9c0.2,0.1,0.4,0.1,0.7,0.1
		c1,0.2,2,0.3,3,0.4c0.4,0,0.8,0,1.3,0c0.4,0,0.7,0,1.1,0c0.2,0,0.3,0,0.5,0c0.9,0,1.9-0.1,2.8-0.3c0.3-0.1,0.6-0.1,0.9-0.2
		c0.7-0.1,1.4-0.3,2.1-0.5c0.3-0.1,0.6-0.2,0.9-0.3c0.6-0.2,1.2-0.4,1.7-0.6c0.1,0,0.1-0.1,0.2-0.1c0.3-0.1,0.6-0.3,0.9-0.4
		c0.3-0.1,0.5-0.2,0.7-0.4c0.6-0.3,1.2-0.6,1.8-1c0.2-0.1,0.4-0.3,0.6-0.4C66.9,104.2,67.2,104,67.6,103.7z"/>
	<linearGradient id="SVGID_3_" gradientUnits="userSpaceOnUse" x1="72.4069" y1="95.434" x2="69.3699" y2="102.742">
		<stop  offset="0" style="stop-color:#FAD94E"/>
		<stop  offset="0.5" style="stop-color:#FE7F2E"/>
		<stop  offset="1" style="stop-color:#F13E5E"/>
	</linearGradient>
	<path class="st3" d="M73.7,95.6c-1.3,3.3-3.4,6-6,8C70.2,101.5,72.2,98.8,73.7,95.6z"/>
	<path class="st1" d="M67.6,103.7c-0.2,0.2-0.4,0.3-0.6,0.5c-0.1,0.1-0.3,0.2-0.4,0.3c-0.3,0.3-0.7,0.5-1,0.8
		c-0.3,0.2-0.5,0.3-0.8,0.5c-0.5,0.3-0.9,0.6-1.4,0.8c-12.5,6.5-29.1,0-39.7-14.6c-1.4-2-2.8-4.1-3.9-6.4
		c-3.8-7.3-5.6-14.9-5.6-21.9c0-0.5,0-0.9,0-1.3c0-0.3,0-0.7,0.1-1c0-0.3,0-0.6,0.1-0.9c0.2-2.3,0.6-4.5,1.2-6.6
		c0.1-0.3,0.2-0.7,0.3-1c0.1-0.2,0.1-0.4,0.2-0.5c0.1-0.2,0.1-0.4,0.2-0.6c0-0.1,0.1-0.3,0.1-0.4c0.2-0.6,0.5-1.2,0.7-1.8
		c0.1-0.3,0.2-0.5,0.4-0.8c0,0,0,0.1,0,0.1c-3.2,15.2,1.5,23.4,3.1,26.1c2.2,3.7,4.9,7.2,7.5,9.9c0,0,0,0,0,0.1v0c0,0.3,0,0.6,0,1
		c0,0,0,0,0,0c0.1,1.1,0.2,2.2,0.4,3.3c0,0,0,0.1,0,0.1c0,0.1,0,0.2,0,0.2c0,0,0,0,0,0s0,0,0,0c1.5,7.1,6.2,13,12.4,16.3
		c0.2,0.1,0.5,0.3,0.7,0.4c0,0,0.1,0,0.1,0c1.1,0.6,2.3,1.1,3.6,1.5c0,0,0.1,0,0.1,0c1.7,0.5,3.5,0.8,5.4,0.9c0.4,0,0.8,0,1.3,0
		c0.4,0,0.7,0,1.1,0c0.2,0,0.3,0,0.5,0c0.9,0,1.9-0.1,2.8-0.3c0.3-0.1,0.6-0.1,0.9-0.2c0.7-0.1,1.4-0.3,2.1-0.5
		c0.3-0.1,0.6-0.2,0.9-0.3c0.6-0.2,1.2-0.4,1.7-0.6c0.1,0,0.1-0.1,0.2-0.1c0.3-0.1,0.6-0.3,0.9-0.4c0.3-0.1,0.5-0.2,0.7-0.4
		c0.6-0.3,1.2-0.6,1.8-1c0.2-0.1,0.4-0.3,0.6-0.4C66.9,104.2,67.2,104,67.6,103.7z"/>
	<linearGradient id="SVGID_4_" gradientUnits="userSpaceOnUse" x1="5.3579" y1="82.064" x2="82.4925" y2="106.6507">
		<stop  offset="0" style="stop-color:#FF78F9"/>
		<stop  offset="0.5" style="stop-color:#C22AF7"/>
		<stop  offset="1" style="stop-color:#5511B6"/>
	</linearGradient>
	<path class="st4" d="M77.4,125.9C77.4,126,77.4,126,77.4,125.9c-1.5,0.9-3.1,1.8-4.7,2.5c-6.2,2.9-13.2,4.5-20.5,4.5
		c-26.8,0-48.6-21.7-48.6-48.6c0-3.9,0.5-7.6,1.3-11.2c0.4-2.9,1.8-6.5,3.9-10.7c2.3-4.5,5.5-9.6,9-14.9c-5.4,10-5,24.5,1.9,37.9
		c9.9,19,29.3,27.8,43.5,20.4c4.6-2.4,8.2-5.6,10.5-10.3c1.4-2.6,2.3-5.5,2.6-8.5c0.1-0.9,0.2-1.9,0.2-2.8c0-1.9-0.2-3.8-0.7-5.6
		c0-0.2,0-0.3-0.1-0.5c0.4,0.9,0.7,1.7,1.1,2.6C85.2,100.8,85.8,118.9,77.4,125.9z"/>
	<path class="st5" d="M74.6,127.6c6.6-5.6,6.8-21.8-0.3-33.1c0.7-1.9,1.8-5.2,2.1-7.3c0.1-0.9,0.2-1.9,0.2-2.8
		c0-1.9-0.2-3.8-0.7-5.6c0-0.2,0-0.3-0.1-0.5c0.4,0.9,0.7,1.7,1.1,2.6c8.3,20,8.9,38.1,0.6,45.2c0,0,0,0,0,0
		c-1.5,0.9-3.1,1.8-4.7,2.5L74.6,127.6z"/>
</g>
</svg>
